<svg xmlns="http://www.w3.org/2000/svg" viewBox="0 0 64 64" id="MenstruationCycle">
  <path d="M20.50739 18.24091l-2.42554-1.05378A23.88475 23.88475 0 0146 9.69287C35.404-.63654 17.33664 1.40376 9.39642 13.936L5.862 13.5379A2 2 0 003.73987 16.155L7.877 28.6286a2 2 0 003.14539.934l9.93512-7.92377A2 2 0 0020.50739 18.24091zM56.123 35.37134a2 2 0 00-3.14539-.934l-9.93512 7.9237a2 2 0 00.45013 3.398l2.42554 1.05372A23.88477 23.88477 0 0118 54.30713c10.596 10.32935 28.66336 8.28911 36.60358-4.2431l3.53442.39807A2 2 0 0060.26013 47.845z" fill="#fafeff" class="color000000 svgShape"></path>
  <path d="M30.53552,17.645c-2.80731,3.06055-8.67071,9.96228-8.67071,14.21979.533,13.44243,19.73787,13.44192,20.2704-.00009,0-4.25742-5.86342-11.15915-8.67073-14.2197A1.985,1.985,0,0,0,30.53552,17.645Z" fill="#fafeff" class="color000000 svgShape"></path>
</svg>
